<svg width="20" height="21" viewBox="0 0 20 21" fill="none" xmlns="http://www.w3.org/2000/svg">
<path d="M13.1921 10.1548L8.47546 5.44645C8.398 5.36834 8.30583 5.30635 8.20428 5.26404C8.10273 5.22173 7.99381 5.19995 7.8838 5.19995C7.77379 5.19995 7.66487 5.22173 7.56332 5.26404C7.46177 5.30635 7.3696 5.36834 7.29213 5.44645C7.13692 5.60259 7.0498 5.8138 7.0498 6.03395C7.0498 6.2541 7.13692 6.46531 7.29213 6.62145L11.4171 10.7881L7.29213 14.9131C7.13692 15.0693 7.0498 15.2805 7.0498 15.5006C7.0498 15.7208 7.13692 15.932 7.29213 16.0881C7.36931 16.1669 7.46135 16.2295 7.56291 16.2724C7.66447 16.3153 7.77354 16.3377 7.8838 16.3381C7.99405 16.3377 8.10312 16.3153 8.20469 16.2724C8.30625 16.2295 8.39829 16.1669 8.47546 16.0881L13.1921 11.3798C13.2767 11.3017 13.3442 11.207 13.3904 11.1016C13.4366 10.9962 13.4604 10.8824 13.4604 10.7673C13.4604 10.6522 13.4366 10.5384 13.3904 10.4329C13.3442 10.3275 13.2767 10.2328 13.1921 10.1548Z" fill="#67AC46"/>
</svg>
