<svg width="18" height="18" viewBox="0 0 18 18" fill="none" xmlns="http://www.w3.org/2000/svg">
<path d="M9.31064 11.8731L13.5481 7.62806C13.6184 7.55834 13.6742 7.47539 13.7123 7.384C13.7504 7.2926 13.77 7.19457 13.77 7.09556C13.77 6.99656 13.7504 6.89853 13.7123 6.80713C13.6742 6.71574 13.6184 6.63279 13.5481 6.56306C13.4076 6.42338 13.2175 6.34497 13.0194 6.34497C12.8213 6.34497 12.6312 6.42338 12.4906 6.56306L8.74064 10.2756L5.02814 6.56306C4.88762 6.42338 4.69753 6.34497 4.49939 6.34497C4.30125 6.34497 4.11116 6.42338 3.97064 6.56306C3.89977 6.63253 3.8434 6.71536 3.80477 6.80677C3.76615 6.89817 3.74605 6.99633 3.74564 7.09556C3.74605 7.19479 3.76615 7.29296 3.80477 7.38436C3.8434 7.47577 3.89977 7.5586 3.97064 7.62806L8.20814 11.8731C8.27837 11.9492 8.36361 12.0099 8.45848 12.0515C8.55336 12.0931 8.65581 12.1145 8.75939 12.1145C8.86297 12.1145 8.96542 12.0931 9.06029 12.0515C9.15517 12.0099 9.24041 11.9492 9.31064 11.8731Z" fill="#67AC46"/>
</svg>
