<svg width="60" height="61" viewBox="0 0 60 61" fill="none" xmlns="http://www.w3.org/2000/svg">
<path d="M2.5 31.75V44.25C2.5 44.913 2.76339 45.5489 3.23223 46.0178C3.70107 46.4866 4.33696 46.75 5 46.75H7.5C7.5 48.7391 8.29018 50.6468 9.6967 52.0533C11.1032 53.4598 13.0109 54.25 15 54.25C16.9891 54.25 18.8968 53.4598 20.3033 52.0533C21.7098 50.6468 22.5 48.7391 22.5 46.75H37.5C37.5 48.7391 38.2902 50.6468 39.6967 52.0533C41.1032 53.4598 43.0109 54.25 45 54.25C46.9891 54.25 48.8968 53.4598 50.3033 52.0533C51.7098 50.6468 52.5 48.7391 52.5 46.75H55C55.663 46.75 56.2989 46.4866 56.7678 46.0178C57.2366 45.5489 57.5 44.913 57.5 44.25V14.25C57.5 12.2609 56.7098 10.3532 55.3033 8.9467C53.8968 7.54018 51.9891 6.75 50 6.75H27.5C25.5109 6.75 23.6032 7.54018 22.1967 8.9467C20.7902 10.3532 20 12.2609 20 14.25V19.25H15C13.8357 19.25 12.6873 19.5211 11.6459 20.0418C10.6045 20.5625 9.6986 21.3185 9 22.25L3 30.25C2.92688 30.3587 2.86806 30.4763 2.825 30.6L2.675 30.875C2.56467 31.1538 2.50539 31.4502 2.5 31.75ZM42.5 46.75C42.5 46.2555 42.6466 45.7722 42.9213 45.3611C43.196 44.95 43.5865 44.6295 44.0433 44.4403C44.5001 44.2511 45.0028 44.2016 45.4877 44.298C45.9727 44.3945 46.4181 44.6326 46.7678 44.9822C47.1174 45.3319 47.3555 45.7773 47.452 46.2623C47.5484 46.7472 47.4989 47.2499 47.3097 47.7067C47.1205 48.1635 46.8 48.554 46.3889 48.8287C45.9778 49.1034 45.4945 49.25 45 49.25C44.337 49.25 43.7011 48.9866 43.2322 48.5178C42.7634 48.0489 42.5 47.413 42.5 46.75ZM25 14.25C25 13.587 25.2634 12.9511 25.7322 12.4822C26.2011 12.0134 26.837 11.75 27.5 11.75H50C50.663 11.75 51.2989 12.0134 51.7678 12.4822C52.2366 12.9511 52.5 13.587 52.5 14.25V41.75H50.55C49.847 40.9766 48.9902 40.3587 48.0345 39.9358C47.0787 39.513 46.0451 39.2946 45 39.2946C43.9549 39.2946 42.9213 39.513 41.9655 39.9358C41.0098 40.3587 40.153 40.9766 39.45 41.75H25V14.25ZM20 29.25H10L13 25.25C13.2329 24.9395 13.5348 24.6875 13.882 24.5139C14.2291 24.3404 14.6119 24.25 15 24.25H20V29.25ZM12.5 46.75C12.5 46.2555 12.6466 45.7722 12.9213 45.3611C13.196 44.95 13.5865 44.6295 14.0433 44.4403C14.5001 44.2511 15.0028 44.2016 15.4877 44.298C15.9727 44.3945 16.4181 44.6326 16.7678 44.9822C17.1174 45.3319 17.3555 45.7773 17.452 46.2623C17.5484 46.7472 17.4989 47.2499 17.3097 47.7067C17.1205 48.1635 16.8 48.554 16.3889 48.8287C15.9778 49.1034 15.4945 49.25 15 49.25C14.337 49.25 13.7011 48.9866 13.2322 48.5178C12.7634 48.0489 12.5 47.413 12.5 46.75ZM7.5 34.25H20V41.2C18.5246 39.8814 16.5878 39.1993 14.6117 39.3023C12.6356 39.4053 10.7803 40.2851 9.45 41.75H7.5V34.25Z" fill="#67AC46"/>
</svg>
