<svg width="60" height="61" viewBox="0 0 60 61" fill="none" xmlns="http://www.w3.org/2000/svg">
<path d="M17.5 40.5C17.0055 40.5 16.5222 40.6466 16.1111 40.9213C15.7 41.196 15.3795 41.5865 15.1903 42.0433C15.0011 42.5001 14.9516 43.0028 15.048 43.4877C15.1445 43.9727 15.3826 44.4181 15.7322 44.7678C16.0819 45.1174 16.5273 45.3555 17.0123 45.452C17.4972 45.5484 17.9999 45.4989 18.4567 45.3097C18.9135 45.1205 19.304 44.8 19.5787 44.3889C19.8534 43.9778 20 43.4945 20 43C20 42.337 19.7366 41.7011 19.2678 41.2322C18.7989 40.7634 18.163 40.5 17.5 40.5ZM47.65 30.5L50.725 27.425C52.1295 26.0187 52.9184 24.1125 52.9184 22.125C52.9184 20.1375 52.1295 18.2313 50.725 16.825L43.65 9.775C42.2437 8.3705 40.3375 7.5816 38.35 7.5816C36.3625 7.5816 34.4563 8.3705 33.05 9.775L30 12.85C29.9607 10.887 29.1533 9.01765 27.751 7.6434C26.3487 6.26916 24.4634 5.49961 22.5 5.5H12.5C10.5109 5.5 8.60322 6.29018 7.1967 7.6967C5.79018 9.10322 5 11.0109 5 13V48C5 49.9891 5.79018 51.8968 7.1967 53.3033C8.60322 54.7098 10.5109 55.5 12.5 55.5H47.5C49.4891 55.5 51.3968 54.7098 52.8033 53.3033C54.2098 51.8968 55 49.9891 55 48V38C55.0004 36.0366 54.2308 34.1513 52.8566 32.749C51.4824 31.3467 49.613 30.5393 47.65 30.5ZM25 48C25 48.663 24.7366 49.2989 24.2678 49.7678C23.7989 50.2366 23.163 50.5 22.5 50.5H12.5C11.837 50.5 11.2011 50.2366 10.7322 49.7678C10.2634 49.2989 10 48.663 10 48V13C10 12.337 10.2634 11.7011 10.7322 11.2322C11.2011 10.7634 11.837 10.5 12.5 10.5H22.5C23.163 10.5 23.7989 10.7634 24.2678 11.2322C24.7366 11.7011 25 12.337 25 13V48ZM30 19.9L36.6 13.3C37.0684 12.8344 37.702 12.573 38.3625 12.573C39.023 12.573 39.6566 12.8344 40.125 13.3L47.2 20.5C47.6656 20.9684 47.927 21.602 47.927 22.2625C47.927 22.923 47.6656 23.5566 47.2 24.025L40 31.225L30 41.1V19.9ZM50 48C50 48.663 49.7366 49.2989 49.2678 49.7678C48.7989 50.2366 48.163 50.5 47.5 50.5H29.55C29.8065 49.7591 29.9497 48.9837 29.975 48.2L42.675 35.5H47.5C48.163 35.5 48.7989 35.7634 49.2678 36.2322C49.7366 36.7011 50 37.337 50 38V48Z" fill="#67AC46"/>
</svg>
