<svg width="60" height="61" viewBox="0 0 60 61" fill="none" xmlns="http://www.w3.org/2000/svg">
<path d="M52.9004 40.825L47.9004 37.95L50.1254 37.35C50.4522 37.2739 50.7603 37.1327 51.0313 36.935C51.3024 36.7373 51.5309 36.4871 51.7032 36.1992C51.8756 35.9113 51.9882 35.5917 52.0344 35.2593C52.0805 34.927 52.0594 34.5888 51.9721 34.2648C51.8848 33.9409 51.7332 33.6378 51.5263 33.3736C51.3194 33.1095 51.0615 32.8897 50.7678 32.7274C50.4742 32.565 50.1509 32.4634 49.8172 32.4287C49.4835 32.3939 49.1462 32.4267 48.8254 32.525L41.7754 34.425L35.0004 30.5L41.7754 26.575L48.8254 28.475H49.4754C50.1385 28.5612 50.8086 28.3805 51.3384 27.9726C51.8682 27.5647 52.2142 26.963 52.3004 26.3C52.3866 25.637 52.2059 24.9668 51.798 24.437C51.3901 23.9073 50.7884 23.5612 50.1254 23.475L47.9004 23L52.9004 20.125C53.186 19.9608 53.4365 19.742 53.6376 19.4811C53.8387 19.2201 53.9864 18.9221 54.0723 18.6041C54.1581 18.286 54.1806 17.9542 54.1382 17.6275C54.0958 17.3008 53.9896 16.9856 53.8254 16.7C53.6613 16.4144 53.4425 16.1639 53.1815 15.9628C52.9205 15.7618 52.6225 15.6141 52.3045 15.5282C51.9864 15.4423 51.6546 15.4199 51.3279 15.4622C51.0012 15.5046 50.686 15.6108 50.4004 15.775L45.0004 18.925L45.7504 16.15C45.8487 15.8292 45.8815 15.4919 45.8467 15.1582C45.812 14.8245 45.7104 14.5012 45.548 14.2076C45.3857 13.9139 45.1659 13.656 44.9018 13.4491C44.6376 13.2422 44.3345 13.0906 44.0106 13.0033C43.6866 12.9161 43.3484 12.8949 43.0161 12.9411C42.6837 12.9872 42.3641 13.0998 42.0762 13.2722C41.7883 13.4445 41.5381 13.673 41.3404 13.9441C41.1427 14.2151 41.0015 14.5232 40.9254 14.85L38.8754 22.35L32.5004 26.175V18.35L37.6754 13.175C38.141 12.7066 38.4024 12.073 38.4024 11.4125C38.4024 10.752 38.141 10.1184 37.6754 9.65C37.443 9.41568 37.1665 9.22969 36.8618 9.10277C36.5572 8.97585 36.2304 8.9105 35.9004 8.9105C35.5704 8.9105 35.2436 8.97585 34.939 9.10277C34.6343 9.22969 34.3578 9.41568 34.1254 9.65L32.5004 11.275V5.5C32.5004 4.83696 32.237 4.20107 31.7682 3.73223C31.2993 3.26339 30.6634 3 30.0004 3C29.3374 3 28.7015 3.26339 28.2326 3.73223C27.7638 4.20107 27.5004 4.83696 27.5004 5.5V11.675L25.4754 9.65C25.243 9.41568 24.9665 9.22969 24.6618 9.10277C24.3572 8.97585 24.0304 8.9105 23.7004 8.9105C23.3704 8.9105 23.0436 8.97585 22.739 9.10277C22.4343 9.22969 22.1578 9.41568 21.9254 9.65C21.4598 10.1184 21.1984 10.752 21.1984 11.4125C21.1984 12.073 21.4598 12.7066 21.9254 13.175L27.5004 18.75V26.25L21.0754 22.45L19.0254 14.95C18.9493 14.6232 18.8082 14.3151 18.6104 14.0441C18.4127 13.773 18.1625 13.5445 17.8746 13.3722C17.5867 13.1998 17.2671 13.0872 16.9347 13.0411C16.6024 12.9949 16.2642 13.0161 15.9402 13.1033C15.6163 13.1906 15.3132 13.3422 15.049 13.5491C14.7849 13.756 14.5651 14.0139 14.4028 14.3076C14.2404 14.6012 14.1388 14.9245 14.1041 15.2582C14.0693 15.5919 14.1021 15.9292 14.2004 16.25L15.0004 18.925L9.60041 15.825C9.31478 15.6608 8.99962 15.5546 8.67292 15.5122C8.34622 15.4699 8.01437 15.4923 7.69633 15.5782C7.37829 15.6641 7.08028 15.8117 6.81932 16.0128C6.55836 16.2139 6.33956 16.4644 6.17541 16.75C6.01125 17.0356 5.90497 17.3508 5.86261 17.6775C5.82026 18.0042 5.84267 18.336 5.92857 18.6541C6.10204 19.2964 6.52356 19.8435 7.10041 20.175L12.1004 23L10.0004 23.65C9.33737 23.7362 8.73572 24.0823 8.32783 24.612C7.91994 25.1418 7.73921 25.812 7.82541 26.475C7.9116 27.138 8.25766 27.7397 8.78745 28.1476C9.31724 28.5555 9.98737 28.7362 10.6504 28.65H11.3004L18.3504 26.75L25.0004 30.5L18.2254 34.425L11.1754 32.525C10.8446 32.4022 10.4916 32.3508 10.1395 32.3741C9.78738 32.3975 9.44423 32.4952 9.13259 32.6607C8.82094 32.8262 8.54787 33.0558 8.33131 33.3344C8.11476 33.613 7.95964 33.9343 7.87615 34.2771C7.79266 34.62 7.78269 34.9766 7.8469 35.3236C7.91111 35.6706 8.04805 36 8.2487 36.2903C8.44936 36.5805 8.70919 36.825 9.0111 37.0077C9.31301 37.1903 9.65017 37.307 10.0004 37.35L12.2254 37.95L7.22541 40.825C6.64856 41.1565 6.22704 41.7036 6.05357 42.3459C5.8801 42.9882 5.96889 43.6732 6.30041 44.25C6.63193 44.8268 7.17902 45.2484 7.82133 45.4218C8.46365 45.5953 9.14856 45.5065 9.72541 45.175L15.0004 42.075L14.2504 44.85C14.1513 45.17 14.1175 45.5067 14.1511 45.84C14.1847 46.1733 14.2849 46.4965 14.4458 46.7903C14.6067 47.0842 14.825 47.3427 15.0878 47.5505C15.3505 47.7583 15.6524 47.9111 15.9754 48C16.1914 48.0246 16.4094 48.0246 16.6254 48C17.1898 48.0193 17.7441 47.847 18.1981 47.5111C18.6521 47.1751 18.9789 46.6954 19.1254 46.15L21.1754 38.65L27.5004 34.825V42.65L22.3254 47.825C21.8598 48.2934 21.5984 48.927 21.5984 49.5875C21.5984 50.248 21.8598 50.8816 22.3254 51.35C22.5569 51.5862 22.8331 51.7741 23.1377 51.9029C23.4424 52.0316 23.7696 52.0986 24.1004 52.1C24.4312 52.0986 24.7584 52.0316 25.0631 51.9029C25.3678 51.7741 25.6439 51.5862 25.8754 51.35L27.5004 49.725V55.5C27.5004 56.163 27.7638 56.7989 28.2326 57.2678C28.7015 57.7366 29.3374 58 30.0004 58C30.6634 58 31.2993 57.7366 31.7682 57.2678C32.237 56.7989 32.5004 56.163 32.5004 55.5V49.325L34.5254 51.35C34.7578 51.5843 35.0343 51.7703 35.339 51.8972C35.6436 52.0242 35.9704 52.0895 36.3004 52.0895C36.6304 52.0895 36.9572 52.0242 37.2618 51.8972C37.5665 51.7703 37.843 51.5843 38.0754 51.35C38.541 50.8816 38.8024 50.248 38.8024 49.5875C38.8024 48.927 38.541 48.2934 38.0754 47.825L32.5004 42.25V34.75L38.9254 38.475L40.9754 45.975C41.1219 46.5204 41.4488 47.0001 41.9027 47.3361C42.3567 47.672 42.911 47.8443 43.4754 47.825C43.6914 47.8496 43.9094 47.8496 44.1254 47.825C44.4446 47.7409 44.744 47.5944 45.0063 47.394C45.2686 47.1936 45.4886 46.9432 45.6536 46.6573C45.8186 46.3714 45.9254 46.0557 45.9678 45.7283C46.0101 45.401 45.9872 45.0685 45.9004 44.75L45.0004 42.075L50.3504 45.175C50.636 45.3392 50.9512 45.4454 51.2779 45.4878C51.6046 45.5301 51.9364 45.5077 52.2545 45.4218C52.5725 45.3359 52.8705 45.1883 53.1315 44.9872C53.3925 44.7861 53.6113 44.5356 53.7754 44.25C53.9396 43.9644 54.0458 43.6492 54.0882 43.3225C54.1306 42.9958 54.1081 42.664 54.0222 42.3459C53.9364 42.0279 53.7887 41.7299 53.5876 41.4689C53.3865 41.208 53.136 40.9892 52.8504 40.825H52.9004Z" fill="#67AC46"/>
</svg>
