<svg width="50" height="50" viewBox="0 0 50 50" fill="none" xmlns="http://www.w3.org/2000/svg">
<path d="M13.75 10C13.0084 10 12.2833 10.22 11.6667 10.632C11.05 11.0441 10.5693 11.6298 10.2855 12.315C10.0017 13.0002 9.9274 13.7542 10.0721 14.4816C10.2168 15.2091 10.5739 15.8772 11.0984 16.4017C11.6228 16.9261 12.291 17.2833 13.0185 17.428C13.7459 17.5727 14.4999 17.4984 15.1851 17.2146C15.8703 16.9308 16.456 16.4501 16.8681 15.8334C17.2801 15.2167 17.5 14.4917 17.5 13.75C17.5 12.7555 17.105 11.8017 16.4017 11.0984C15.6984 10.3951 14.7446 10 13.75 10ZM47.8 21.775L26.775 0.725042C26.5414 0.493338 26.2644 0.310025 25.9598 0.185614C25.6552 0.0612022 25.3291 -0.00186045 25 4.17857e-05H2.50004C1.837 4.17857e-05 1.20112 0.263434 0.732275 0.732275C0.263434 1.20112 4.17857e-05 1.837 4.17857e-05 2.50004V25C-0.00186045 25.3291 0.0612022 25.6552 0.185614 25.9598C0.310025 26.2644 0.493338 26.5414 0.725042 26.775L21.775 47.8C23.1813 49.2045 25.0875 49.9934 27.075 49.9934C29.0625 49.9934 30.9688 49.2045 32.375 47.8L47.8 32.5C49.2045 31.0938 49.9934 29.1875 49.9934 27.2C49.9934 25.2125 49.2045 23.3063 47.8 21.9V21.775ZM44.275 28.825L28.825 44.25C28.3566 44.7157 27.723 44.977 27.0625 44.977C26.4021 44.977 25.7684 44.7157 25.3 44.25L5.00004 23.975V5.00004H23.975L44.275 25.3C44.5067 25.5336 44.6901 25.8107 44.8145 26.1153C44.9389 26.4199 45.0019 26.746 45 27.075C44.9973 27.7309 44.7369 28.3594 44.275 28.825Z" fill="#67AC46"/>
<path d="M22.3983 30.609C21.7739 30.008 21.2479 29.3721 20.8202 28.7013C20.4113 28.0301 20.1014 27.3524 19.8903 26.668C19.6792 25.9837 19.5772 25.3302 19.5841 24.7077L22.3047 24.2174C22.2301 24.7563 22.269 25.3119 22.4214 25.8842C22.5833 26.4658 22.825 27.0223 23.1463 27.5536C23.4772 28.0942 23.8444 28.5587 24.2479 28.9471C24.757 29.4372 25.2296 29.744 25.6658 29.8678C26.1019 29.9915 26.4679 29.8996 26.7638 29.5922C26.958 29.3905 27.0333 29.1392 26.9899 28.8382C26.9464 28.5373 26.7596 28.1354 26.4294 27.6325L24.928 25.2989C24.5295 24.6747 24.2302 24.0628 24.0301 23.4631C23.8397 22.8726 23.7864 22.3032 23.8703 21.7546C23.973 21.2057 24.2416 20.7056 24.6762 20.2541C25.2402 19.6681 25.898 19.3019 26.6496 19.1556C27.4012 19.0092 28.195 19.0978 29.031 19.4214C29.8763 19.7353 30.7167 20.2945 31.5525 21.0989C32.4074 21.9219 33.0367 22.7774 33.4402 23.6656C33.8534 24.563 34.0458 25.507 34.0176 26.4976L31.4928 26.8711C31.5058 26.0693 31.3691 25.327 31.0826 24.6441C30.8149 23.9608 30.3689 23.3186 29.7445 22.7176C29.3603 22.3478 29.0065 22.0905 28.6831 21.9458C28.369 21.7914 28.0849 21.7308 27.831 21.764C27.5862 21.7875 27.3806 21.8857 27.2142 22.0586C27.0755 22.2027 26.9843 22.3648 26.9406 22.5448C26.9065 22.734 26.944 22.9738 27.0533 23.264C27.1814 23.5539 27.401 23.941 27.712 24.4255L28.9497 26.2831C29.6681 27.3633 30.0539 28.3083 30.107 29.1183C30.1695 29.9186 29.8724 30.6598 29.2159 31.3418C28.5871 31.995 27.8873 32.3856 27.1165 32.5134C26.3457 32.6413 25.5516 32.5338 24.7341 32.1911C23.9262 31.8576 23.1476 31.3302 22.3983 30.609ZM20.4285 31.1558L32.0238 19.1097L33.5367 20.566L21.9414 32.6121L20.4285 31.1558Z" fill="#67AC46"/>
<path fill-rule="evenodd" clip-rule="evenodd" d="M22.4214 25.8842C22.3631 25.6654 22.3214 25.449 22.2964 25.235C22.2559 24.8894 22.2587 24.5502 22.3047 24.2174L19.5841 24.7077C19.5772 25.3302 19.6792 25.9837 19.8903 26.668C20.1014 27.3524 20.4113 28.0301 20.8202 28.7013C20.8968 28.8214 20.9765 28.9404 21.0594 29.0583C21.2501 29.3295 21.4575 29.5947 21.6815 29.854L20.4285 31.1558L21.9414 32.6121L23.2036 31.3009C23.4829 31.5129 23.7661 31.6993 24.0532 31.8602C24.2778 31.9862 24.5047 32.0964 24.7341 32.1911C25.5516 32.5338 26.3457 32.6413 27.1165 32.5134C27.8873 32.3856 28.5871 31.995 29.2159 31.3418C29.8724 30.6598 30.1695 29.9186 30.107 29.1183C30.0588 28.3826 29.736 27.5354 29.1389 26.5768C29.0786 26.48 29.0156 26.3821 28.9497 26.2831L28.575 25.7207L30.5561 23.6626C30.7617 23.9605 30.9291 24.2673 31.0581 24.583C31.0664 24.6033 31.0746 24.6237 31.0826 24.6441C31.2459 25.0334 31.3606 25.4421 31.4266 25.87C31.4763 26.1927 31.4984 26.5264 31.4928 26.8711L34.0176 26.4976C34.0458 25.507 33.8534 24.563 33.4402 23.6656C33.2888 23.3322 33.1055 23.0035 32.8905 22.6794C32.7096 22.4067 32.5063 22.1373 32.2804 21.8712L33.5367 20.566L32.0238 19.1097L30.7665 20.4158C30.487 20.1988 30.2069 20.0091 29.9264 19.8467C29.6285 19.6742 29.3301 19.5324 29.031 19.4214C28.195 19.0978 27.4012 19.0092 26.6496 19.1556C25.898 19.3019 25.2402 19.6681 24.6762 20.2541C24.2416 20.7056 23.973 21.2057 23.8703 21.7546C23.7864 22.3032 23.8397 22.8726 24.0301 23.4631C24.2133 24.0123 24.4798 24.5719 24.8295 25.1417C24.8616 25.194 24.8945 25.2464 24.928 25.2989L25.384 26.0076L23.4511 28.0156C23.3463 27.8684 23.2447 27.7144 23.1463 27.5536C23.0627 27.4154 22.9846 27.2755 22.9118 27.134C22.7047 26.7311 22.5412 26.3145 22.4214 25.8842ZM22.1842 27.8898C21.8693 27.3371 21.6266 26.7576 21.458 26.1525L21.455 26.1415C21.3903 25.8985 21.342 25.6554 21.3107 25.4127L20.6469 25.5323C20.69 25.8011 20.7558 26.0813 20.8459 26.3733C21.0294 26.9684 21.3016 27.5679 21.6688 28.1722C21.701 28.2226 21.7339 28.2728 21.7674 28.3228L22.1842 27.8898ZM23.063 29.8607L23.3983 29.5125C23.4216 29.5364 23.4451 29.5601 23.4686 29.5836L23.1352 29.93C23.1207 29.9163 23.1063 29.9025 23.0918 29.8885C23.0822 29.8793 23.0726 29.87 23.063 29.8607ZM24.7743 31.111C24.8882 31.168 25.002 31.2198 25.1156 31.2668L25.1207 31.2689C25.7885 31.5488 26.392 31.62 26.9529 31.5269C27.4786 31.4397 27.9911 31.1723 28.4954 30.6483C28.9928 30.1316 29.1463 29.66 29.1101 29.196L29.1091 29.1838C29.0784 28.7162 28.8777 28.1011 28.4212 27.3224L27.772 27.9969C27.873 28.2318 27.9465 28.4661 27.9796 28.6953C28.0628 29.2715 27.9127 29.8406 27.4842 30.2857C27.2238 30.5563 26.8985 30.7643 26.5108 30.8616C26.1267 30.9579 25.7455 30.9298 25.3929 30.8298C25.3044 30.8047 25.2167 30.7752 25.1299 30.7417L24.7743 31.111ZM25.9241 29.9166C26.2484 29.945 26.5283 29.8368 26.7638 29.5922C26.958 29.3905 27.0333 29.1392 26.9899 28.8382C26.9887 28.83 26.9874 28.8218 26.986 28.8134C26.9428 28.5552 26.7978 28.2252 26.5509 27.8235L24.9291 29.5083C25.1852 29.6813 25.4308 29.8011 25.6658 29.8678C25.7548 29.893 25.8409 29.9093 25.9241 29.9166ZM24.8559 28.1424L25.2829 27.6988L25.2273 27.6123L24.7862 28.0706C24.8094 28.0949 24.8326 28.1188 24.8559 28.1424ZM26.6527 26.1315L26.7084 26.2179L27.2971 25.6063L27.2403 25.5211L26.6527 26.1315ZM28.6605 24.0456L28.7173 24.1308L29.2207 23.6079C29.1978 23.584 29.1745 23.5601 29.1508 23.5363L28.6605 24.0456ZM29.079 22.1689C28.9423 22.0771 28.8104 22.0027 28.6831 21.9458C28.4694 21.8408 28.2696 21.7792 28.0837 21.7609C27.9964 21.7524 27.9121 21.7534 27.831 21.764C27.5862 21.7875 27.3806 21.8857 27.2142 22.0586C27.0755 22.2027 26.9843 22.3648 26.9406 22.5448C26.9204 22.6566 26.9253 22.7861 26.9552 22.9333C26.9759 23.0351 27.0086 23.1453 27.0533 23.264C27.1328 23.4439 27.2475 23.6612 27.3974 23.9159L29.079 22.1689ZM26.1736 23.7453C26.1615 23.7193 26.1498 23.6936 26.1387 23.6682L26.1273 23.6426L26.1174 23.6163C25.9797 23.2505 25.8763 22.8119 25.9564 22.3674L25.9618 22.3379L25.9688 22.3088C26.0576 21.9431 26.2424 21.6263 26.4937 21.3651C26.8262 21.0198 27.2493 20.819 27.7186 20.7702C28.1251 20.7207 28.5168 20.7972 28.8756 20.9383L29.2081 20.5928C29.0304 20.5006 28.8553 20.4229 28.6829 20.3588L28.6701 20.354C27.9793 20.0867 27.3777 20.0326 26.8408 20.1372C26.3039 20.2417 25.8274 20.5 25.3966 20.9476C25.0853 21.271 24.921 21.5939 24.8563 21.9226C24.8022 22.2945 24.8354 22.6999 24.9804 23.1515C25.1133 23.5487 25.301 23.963 25.5487 24.3945L26.1736 23.7453ZM30.8301 21.7917L30.5381 22.0951C30.5618 22.1187 30.5852 22.1424 30.6085 22.1661L30.9021 21.8611C30.8878 21.8472 30.8734 21.8333 30.859 21.8194C30.8494 21.8101 30.8397 21.8009 30.8301 21.7917ZM32.1774 23.4202L31.8035 23.8086C31.8791 23.959 31.9478 24.1122 32.0093 24.2682C32.204 24.7347 32.3387 25.2207 32.4158 25.7237L32.9792 25.6404C32.9123 25.1041 32.7633 24.5864 32.5319 24.0838L32.5298 24.0793C32.4301 23.8598 32.3129 23.6401 32.1774 23.4202Z" fill="#67AC46"/>
</svg>
