<svg width="20" height="20" viewBox="0 0 20 20" fill="none" xmlns="http://www.w3.org/2000/svg">
<path d="M9.59155 7.05L14.2999 11.7667C14.378 11.8441 14.44 11.9363 14.4823 12.0378C14.5246 12.1394 14.5464 12.2483 14.5464 12.3583C14.5464 12.4683 14.5246 12.5773 14.4823 12.6788C14.44 12.7804 14.378 12.8725 14.2999 12.95C14.1438 13.1052 13.9325 13.1923 13.7124 13.1923C13.4922 13.1923 13.281 13.1052 13.1249 12.95L8.95822 8.825L4.83322 12.95C4.67708 13.1052 4.46587 13.1923 4.24572 13.1923C4.02557 13.1923 3.81435 13.1052 3.65822 12.95C3.57948 12.8728 3.51684 12.7808 3.47392 12.6792C3.43101 12.5777 3.40868 12.4686 3.40822 12.3583C3.40868 12.2481 3.43101 12.139 3.47392 12.0374C3.51684 11.9359 3.57948 11.8438 3.65822 11.7667L8.36655 7.05C8.44459 6.96541 8.5393 6.8979 8.64471 6.85173C8.75013 6.80556 8.86397 6.78172 8.97905 6.78172C9.09414 6.78172 9.20798 6.80556 9.31339 6.85173C9.41881 6.8979 9.51352 6.96541 9.59155 7.05Z" fill="#67AC46"/>
</svg>
