<svg width="19" height="18" viewBox="0 0 19 18" fill="none" xmlns="http://www.w3.org/2000/svg">
<path d="M14.75 8.25H10.25V3.75C10.25 3.55109 10.171 3.36032 10.0303 3.21967C9.88968 3.07902 9.69891 3 9.5 3C9.30109 3 9.11032 3.07902 8.96967 3.21967C8.82902 3.36032 8.75 3.55109 8.75 3.75V8.25H4.25C4.05109 8.25 3.86032 8.32902 3.71967 8.46967C3.57902 8.61032 3.5 8.80109 3.5 9C3.5 9.19891 3.57902 9.38968 3.71967 9.53033C3.86032 9.67098 4.05109 9.75 4.25 9.75H8.75V14.25C8.75 14.4489 8.82902 14.6397 8.96967 14.7803C9.11032 14.921 9.30109 15 9.5 15C9.69891 15 9.88968 14.921 10.0303 14.7803C10.171 14.6397 10.25 14.4489 10.25 14.25V9.75H14.75C14.9489 9.75 15.1397 9.67098 15.2803 9.53033C15.421 9.38968 15.5 9.19891 15.5 9C15.5 8.80109 15.421 8.61032 15.2803 8.46967C15.1397 8.32902 14.9489 8.25 14.75 8.25Z" fill="#8C8C8C"/>
</svg>
