<svg width="20" height="20" viewBox="0 0 20 20" fill="none" xmlns="http://www.w3.org/2000/svg">
<path d="M15.8333 9.16666H10.8333V4.16666C10.8333 3.94565 10.7455 3.73369 10.5892 3.57741C10.4329 3.42113 10.2209 3.33333 9.99992 3.33333C9.7789 3.33333 9.56694 3.42113 9.41066 3.57741C9.25438 3.73369 9.16658 3.94565 9.16658 4.16666V9.16666H4.16659C3.94557 9.16666 3.73361 9.25446 3.57733 9.41074C3.42105 9.56702 3.33325 9.77898 3.33325 9.99999C3.33325 10.221 3.42105 10.433 3.57733 10.5893C3.73361 10.7455 3.94557 10.8333 4.16659 10.8333H9.16658V15.8333C9.16658 16.0543 9.25438 16.2663 9.41066 16.4226C9.56694 16.5789 9.7789 16.6667 9.99992 16.6667C10.2209 16.6667 10.4329 16.5789 10.5892 16.4226C10.7455 16.2663 10.8333 16.0543 10.8333 15.8333V10.8333H15.8333C16.0543 10.8333 16.2662 10.7455 16.4225 10.5893C16.5788 10.433 16.6666 10.221 16.6666 9.99999C16.6666 9.77898 16.5788 9.56702 16.4225 9.41074C16.2662 9.25446 16.0543 9.16666 15.8333 9.16666Z" fill="#272933"/>
</svg>
