<svg width="18" height="19" viewBox="0 0 18 19" fill="none" xmlns="http://www.w3.org/2000/svg">
<path d="M11.655 8.9675L7.40999 4.73C7.34026 4.6597 7.25731 4.60391 7.16592 4.56583C7.07452 4.52775 6.9765 4.50815 6.87749 4.50815C6.77848 4.50815 6.68045 4.52775 6.58905 4.56583C6.49766 4.60391 6.41471 4.6597 6.34499 4.73C6.2053 4.87052 6.12689 5.06061 6.12689 5.25875C6.12689 5.45689 6.2053 5.64698 6.34499 5.7875L10.0575 9.5375L6.34499 13.25C6.2053 13.3905 6.12689 13.5806 6.12689 13.7787C6.12689 13.9769 6.2053 14.167 6.34499 14.3075C6.41445 14.3784 6.49728 14.4347 6.58869 14.4734C6.68009 14.512 6.77826 14.5321 6.87749 14.5325C6.97672 14.5321 7.07488 14.512 7.16628 14.4734C7.25769 14.4347 7.34053 14.3784 7.40999 14.3075L11.655 10.07C11.7311 9.99977 11.7919 9.91453 11.8334 9.81965C11.875 9.72478 11.8964 9.62232 11.8964 9.51875C11.8964 9.41517 11.875 9.31272 11.8334 9.21784C11.7919 9.12297 11.7311 9.03773 11.655 8.9675Z" fill="white"/>
</svg>
