<svg width="60" height="60" viewBox="0 0 60 60" fill="none" xmlns="http://www.w3.org/2000/svg">
<path d="M18.75 15C18.0084 15 17.2833 15.22 16.6667 15.632C16.05 16.0441 15.5693 16.6298 15.2855 17.315C15.0017 18.0002 14.9274 18.7542 15.0721 19.4816C15.2168 20.2091 15.5739 20.8772 16.0984 21.4017C16.6228 21.9261 17.291 22.2833 18.0185 22.428C18.7459 22.5727 19.4999 22.4984 20.1851 22.2146C20.8703 21.9308 21.456 21.4501 21.8681 20.8334C22.2801 20.2167 22.5 19.4917 22.5 18.75C22.5 17.7555 22.105 16.8017 21.4017 16.0984C20.6984 15.3951 19.7446 15 18.75 15ZM52.8 26.775L31.775 5.72504C31.5414 5.49334 31.2644 5.31003 30.9598 5.18561C30.6552 5.0612 30.3291 4.99814 30 5.00004H7.50004C6.837 5.00004 6.20112 5.26343 5.73227 5.73227C5.26343 6.20112 5.00004 6.837 5.00004 7.50004V30C4.99814 30.3291 5.0612 30.6552 5.18561 30.9598C5.31003 31.2644 5.49334 31.5414 5.72504 31.775L26.775 52.8C28.1813 54.2045 30.0875 54.9934 32.075 54.9934C34.0625 54.9934 35.9688 54.2045 37.375 52.8L52.8 37.5C54.2045 36.0938 54.9934 34.1875 54.9934 32.2C54.9934 30.2125 54.2045 28.3063 52.8 26.9V26.775ZM49.275 33.825L33.825 49.25C33.3566 49.7157 32.723 49.977 32.0625 49.977C31.4021 49.977 30.7684 49.7157 30.3 49.25L10 28.975V10H28.975L49.275 30.3C49.5067 30.5336 49.6901 30.8107 49.8145 31.1153C49.9389 31.4199 50.0019 31.746 50 32.075C49.9973 32.7309 49.7369 33.3594 49.275 33.825Z" fill="#67AC46"/>
</svg>
