<svg width="20" height="20" viewBox="0 0 20 20" fill="none" xmlns="http://www.w3.org/2000/svg">
<path d="M18.3333 6.03334C18.334 5.92367 18.313 5.81495 18.2715 5.71342C18.23 5.61188 18.1689 5.51954 18.0917 5.44167L14.5583 1.90834C14.4805 1.8311 14.3881 1.77 14.2866 1.72853C14.1851 1.68706 14.0763 1.66604 13.9667 1.66667C13.857 1.66604 13.7483 1.68706 13.6467 1.72853C13.5452 1.77 13.4529 1.8311 13.375 1.90834L11.0167 4.26667L1.90834 13.375C1.8311 13.4529 1.77 13.5452 1.72853 13.6467C1.68706 13.7483 1.66604 13.857 1.66667 13.9667V17.5C1.66667 17.721 1.75447 17.933 1.91075 18.0893C2.06703 18.2455 2.27899 18.3333 2.5 18.3333H6.03334C6.14994 18.3397 6.26658 18.3214 6.37569 18.2798C6.48479 18.2382 6.58393 18.1741 6.66667 18.0917L15.725 8.98334L18.0917 6.66667C18.1677 6.5859 18.2297 6.49295 18.275 6.39167C18.283 6.32525 18.283 6.2581 18.275 6.19167C18.2789 6.15288 18.2789 6.1138 18.275 6.075L18.3333 6.03334ZM5.69167 16.6667H3.33334V14.3083L11.6083 6.03334L13.9667 8.39167L5.69167 16.6667ZM15.1417 7.21667L12.7833 4.85834L13.9667 3.68334L16.3167 6.03334L15.1417 7.21667Z" fill="#272933"/>
</svg>
