<svg width="17" height="16" viewBox="0 0 17 16" fill="none" xmlns="http://www.w3.org/2000/svg">
<g opacity="0.5">
<path d="M7.16667 12C7.34348 12 7.51305 11.9298 7.63807 11.8048C7.7631 11.6798 7.83333 11.5102 7.83333 11.3334V7.33337C7.83333 7.15656 7.7631 6.98699 7.63807 6.86197C7.51305 6.73695 7.34348 6.66671 7.16667 6.66671C6.98986 6.66671 6.82029 6.73695 6.69526 6.86197C6.57024 6.98699 6.5 7.15656 6.5 7.33337V11.3334C6.5 11.5102 6.57024 11.6798 6.69526 11.8048C6.82029 11.9298 6.98986 12 7.16667 12ZM13.8333 4.00004H11.1667V3.33337C11.1667 2.80294 10.956 2.29423 10.5809 1.91916C10.2058 1.54409 9.6971 1.33337 9.16667 1.33337H7.83333C7.3029 1.33337 6.79419 1.54409 6.41912 1.91916C6.04405 2.29423 5.83333 2.80294 5.83333 3.33337V4.00004H3.16667C2.98986 4.00004 2.82029 4.07028 2.69526 4.1953C2.57024 4.32033 2.5 4.4899 2.5 4.66671C2.5 4.84352 2.57024 5.01309 2.69526 5.13811C2.82029 5.26314 2.98986 5.33337 3.16667 5.33337H3.83333V12.6667C3.83333 13.1971 4.04405 13.7058 4.41912 14.0809C4.79419 14.456 5.3029 14.6667 5.83333 14.6667H11.1667C11.6971 14.6667 12.2058 14.456 12.5809 14.0809C12.956 13.7058 13.1667 13.1971 13.1667 12.6667V5.33337H13.8333C14.0101 5.33337 14.1797 5.26314 14.3047 5.13811C14.4298 5.01309 14.5 4.84352 14.5 4.66671C14.5 4.4899 14.4298 4.32033 14.3047 4.1953C14.1797 4.07028 14.0101 4.00004 13.8333 4.00004ZM7.16667 3.33337C7.16667 3.15656 7.2369 2.98699 7.36193 2.86197C7.48695 2.73695 7.65652 2.66671 7.83333 2.66671H9.16667C9.34348 2.66671 9.51305 2.73695 9.63807 2.86197C9.7631 2.98699 9.83333 3.15656 9.83333 3.33337V4.00004H7.16667V3.33337ZM11.8333 12.6667C11.8333 12.8435 11.7631 13.0131 11.6381 13.1381C11.513 13.2631 11.3435 13.3334 11.1667 13.3334H5.83333C5.65652 13.3334 5.48695 13.2631 5.36193 13.1381C5.2369 13.0131 5.16667 12.8435 5.16667 12.6667V5.33337H11.8333V12.6667ZM9.83333 12C10.0101 12 10.1797 11.9298 10.3047 11.8048C10.4298 11.6798 10.5 11.5102 10.5 11.3334V7.33337C10.5 7.15656 10.4298 6.98699 10.3047 6.86197C10.1797 6.73695 10.0101 6.66671 9.83333 6.66671C9.65652 6.66671 9.48695 6.73695 9.36193 6.86197C9.23691 6.98699 9.16667 7.15656 9.16667 7.33337V11.3334C9.16667 11.5102 9.23691 11.6798 9.36193 11.8048C9.48695 11.9298 9.65652 12 9.83333 12Z" fill="#E76B50"/>
</g>
</svg>
